<svg width="56" height="58" viewBox="0 0 56 58" fill="none" xmlns="http://www.w3.org/2000/svg">
<g style="mix-blend-mode:darken">
<path d="M42.9373 2C41.1801 2.97064 39.8048 4.48976 37.9787 5.35442C36.336 6.13217 34.809 6.78025 33.2863 7.78102C32.2086 8.48927 30.6852 8.95381 29.4924 9.45823C28.265 9.97728 27.0717 10.7478 25.7984 11.1176C23.7429 11.7146 21.5054 11.6232 19.4087 11.9919C18.2853 12.1895 11.0775 15.2687 10.8892 11.635C10.7563 9.069 11.8785 7.97344 14.4834 7.79886C17.2894 7.61081 20.4658 7.68146 23.0196 9.10138C27.2289 11.4418 30.3003 15.5206 34.1349 18.4331C36.2847 20.066 38.9611 21.1576 41.4564 22.073C43.3967 22.7848 47.2427 24.7008 47.8626 21.3771C48.801 16.3459 44.7679 16.1612 40.7408 17.1306C30.6022 19.5711 22.0713 27.1732 12.1871 30.4412C10.8996 30.8669 9.55444 31.0597 8.29342 31.5831C7.35102 31.9743 6.38516 32.7254 5.36483 32.8321C3.9397 32.9812 4.00037 32.5532 4.00037 31.1192C4.00037 28.4474 4.67775 28.0335 6.92896 27.1938C8.14292 26.7411 9.91173 27.0141 11.1887 27.0511C12.5519 27.0906 13.344 28.2063 14.5 28.7818C17.2546 30.1532 20.0508 31.7257 22.6701 33.4031C26.9236 36.127 31.4756 38.0031 36.3313 39.0949C38.0135 39.4731 45.9324 41.6727 45.9324 37.6675C45.9324 34.0716 38.4408 37.0627 37.2964 37.6496C33.506 39.5935 29.6394 41.2191 25.6486 42.6456C22.9137 43.6231 20.1382 44.4591 17.412 45.4647C16.7264 45.7176 16.1067 46 15.3819 46" stroke="#79B4C1" stroke-width="4" stroke-linecap="round"/>
</g>
<g style="mix-blend-mode:darken" filter="url(#filter0_d_13_3)">
<path d="M44.9373 4C43.1801 4.97064 41.8048 6.48976 39.9787 7.35442C38.336 8.13217 36.809 8.78025 35.2863 9.78102C34.2086 10.4893 32.6852 10.9538 31.4924 11.4582C30.265 11.9773 29.0717 12.7478 27.7984 13.1176C25.7429 13.7146 23.5054 13.6232 21.4087 13.9919C20.2853 14.1895 13.0775 17.2687 12.8892 13.635C12.7563 11.069 13.8785 9.97344 16.4834 9.79886C19.2894 9.61081 22.4658 9.68146 25.0196 11.1014C29.2289 13.4418 32.3003 17.5206 36.1349 20.4331C38.2847 22.066 40.9611 23.1576 43.4564 24.073C45.3967 24.7848 49.2427 26.7008 49.8626 23.3771C50.801 18.3459 46.7679 18.1612 42.7408 19.1306C32.6022 21.5711 24.0713 29.1732 14.1871 32.4412C12.8996 32.8669 11.5544 33.0597 10.2934 33.5831C9.35102 33.9743 8.38516 34.7254 7.36483 34.8321C5.9397 34.9812 6.00037 34.5532 6.00037 33.1192C6.00037 30.4474 6.67775 30.0335 8.92896 29.1938C10.1429 28.7411 11.9117 29.0141 13.1887 29.0511C14.5519 29.0906 15.344 30.2063 16.5 30.7818C19.2546 32.1532 22.0508 33.7257 24.6701 35.4031C28.9236 38.127 33.4756 40.0031 38.3313 41.0949C40.0135 41.4731 47.9324 43.6727 47.9324 39.6675C47.9324 36.0716 40.4408 39.0627 39.2964 39.6496C35.506 41.5935 31.6394 43.2191 27.6486 44.6456C24.9137 45.6231 22.1382 46.4591 19.412 47.4647C18.7264 47.7176 18.1067 48 17.3819 48" stroke="#E86868" stroke-width="4" stroke-linecap="round" shape-rendering="crispEdges"/>
</g>
<defs>
<filter id="filter0_d_13_3" x="-0.00012207" y="1.99951" width="56" height="56.0005" filterUnits="userSpaceOnUse" color-interpolation-filters="sRGB">
<feFlood flood-opacity="0" result="BackgroundImageFix"/>
<feColorMatrix in="SourceAlpha" type="matrix" values="0 0 0 0 0 0 0 0 0 0 0 0 0 0 0 0 0 0 127 0" result="hardAlpha"/>
<feOffset dy="4"/>
<feGaussianBlur stdDeviation="2"/>
<feComposite in2="hardAlpha" operator="out"/>
<feColorMatrix type="matrix" values="0 0 0 0 0 0 0 0 0 0 0 0 0 0 0 0 0 0 0.25 0"/>
<feBlend mode="normal" in2="BackgroundImageFix" result="effect1_dropShadow_13_3"/>
<feBlend mode="normal" in="SourceGraphic" in2="effect1_dropShadow_13_3" result="shape"/>
</filter>
</defs>
</svg>
